<svg width="120" height="120" viewBox="0 0 120 120" fill="none" xmlns="http://www.w3.org/2000/svg">
<rect width="120" height="120" rx="7.03125" fill="url(#paint0_linear_563_387)"/>
<path d="M59.9079 24.1406C56.1091 24.1406 53.0296 27.6354 53.0296 31.9464C53.0296 34.9362 54.5109 37.5329 56.6859 38.844L54.1637 39.9802L47.4516 43.0061C46.8032 43.3213 46.4796 43.8557 46.4796 44.6121V51.7975C46.5329 52.6958 47.0875 53.5331 47.9865 53.5473H71.8655C72.892 53.4606 73.4112 52.6569 73.4213 51.7975V44.6121C73.4213 43.8557 73.0977 43.3213 72.4493 43.0061L65.9803 39.9802L63.2918 38.7422C65.3777 37.4015 66.7861 34.861 66.7861 31.9464C66.7861 27.6354 63.7066 24.1406 59.9079 24.1406V24.1406ZM48.8133 26.8856C47.1786 26.9459 45.883 27.6335 44.8987 28.7291C43.8099 30.0482 43.2791 31.6143 43.2688 33.1723C43.3357 35.4761 44.3962 37.657 46.2841 38.7978L38.7467 42.2025C38.2279 42.3916 37.9688 42.8327 37.9688 43.5261V49.2928C38.0093 50.0576 38.4178 50.7004 39.1838 50.7114H44.1934V44.6121C44.2763 42.9814 45.0641 41.6633 46.4796 41.0201L51.4878 38.7042C51.8769 38.4836 52.2499 38.1837 52.6065 37.8055C50.5415 34.7086 50.2548 30.9993 51.5856 27.7367C50.72 27.2218 49.7473 26.8909 48.8133 26.8856V26.8856ZM71.1839 26.8856C70.1149 26.9073 69.1269 27.29 68.3154 27.8304C69.6099 31.1225 69.2528 34.8341 67.3419 37.7105C67.7634 38.1832 68.2022 38.5457 68.6561 38.7979L73.4702 41.0201C74.9367 41.8019 75.693 43.1317 75.7075 44.6121V50.7115H80.8623C81.7101 50.6404 82.0714 49.9831 82.0788 49.2929V43.5261C82.0788 42.8958 81.8196 42.4547 81.3009 42.2025L73.8598 38.7503C75.7896 37.3673 76.7586 35.2945 76.7773 33.1723C76.726 31.4925 76.1981 29.9328 75.1475 28.7291C74.0497 27.5715 72.688 26.8978 71.1839 26.8856V26.8856Z" fill="#3F391C"/>
<path d="M77.4908 61.549C75.3365 60.8697 72.9687 60.5786 70.698 60.5786C66.9135 60.5786 62.8378 61.3549 60.0236 63.4898C57.2094 61.3549 53.1338 60.5786 49.3492 60.5786C45.5646 60.5786 41.489 61.3549 38.6748 63.4898V93.5722C41.489 91.4373 45.5646 90.661 49.3492 90.661C53.1338 90.661 57.2094 91.4373 60.0236 93.5722C62.8378 91.4373 66.9135 90.661 70.698 90.661C72.9687 90.661 75.3365 90.9521 77.4908 91.6314C78.9464 92.1166 80.2079 92.6988 81.3724 93.5722V63.4898C80.2079 62.6164 78.9464 62.0342 77.4908 61.549ZM77.4908 87.7498C75.3559 87.0705 73.027 86.7794 70.698 86.7794C67.3987 86.7794 62.6437 88.0409 60.0236 89.6906V67.3714C62.6437 65.7217 67.3987 64.4602 70.698 64.4602C73.027 64.4602 75.3559 64.7513 77.4908 65.4306V87.7498Z" fill="#3F391C"/>
<path d="M70.6984 72.2234C72.4064 72.2234 74.056 72.3981 75.5504 72.728V69.778C74.0172 69.4869 72.3675 69.3122 70.6984 69.3122C67.3991 69.3122 64.4103 69.875 61.9648 70.9231V74.1448C64.1579 72.9027 67.205 72.2234 70.6984 72.2234ZM61.9648 76.0856V79.3073C64.1579 78.0652 67.205 77.3859 70.6984 77.3859C72.4064 77.3859 74.056 77.5606 75.5504 77.8905V74.9405C74.0172 74.6494 72.3675 74.4747 70.6984 74.4747C67.3991 74.4747 64.4103 75.057 61.9648 76.0856ZM70.6984 79.6567C67.3991 79.6567 64.4103 80.2195 61.9648 81.2675V84.4893C64.1579 83.2471 67.205 82.5679 70.6984 82.5679C72.4064 82.5679 74.056 82.7425 75.5504 83.0725V80.1225C74.0172 79.8119 72.3675 79.6567 70.6984 79.6567Z" fill="#3F391C"/>
<defs>
<linearGradient id="paint0_linear_563_387" x1="60" y1="0" x2="60" y2="120" gradientUnits="userSpaceOnUse">
<stop stop-color="#FFEB80"/>
<stop offset="1" stop-color="#FFE661"/>
</linearGradient>
</defs>
</svg>
